<svg xmlns="http://www.w3.org/2000/svg" width="52" height="52" fill="none" viewBox="0 0 52 52">
  <path fill="#0096FF" d="M26 4.333C14.04 4.333 4.333 14.04 4.333 26S14.04 47.666 26 47.666 47.667 37.96 47.667 26 37.96 4.333 26 4.333Zm8.732 22.815-6.5 6.5a1.607 1.607 0 0 1-1.149.477c-.411 0-.823-.152-1.148-.477a1.635 1.635 0 0 1 0-2.297l3.727-3.726H18.417A1.637 1.637 0 0 1 16.792 26c0-.889.736-1.625 1.625-1.625h11.245l-3.727-3.727a1.635 1.635 0 0 1 0-2.297 1.635 1.635 0 0 1 2.297 0l6.5 6.5a1.635 1.635 0 0 1 0 2.297Z"/>
</svg>
