<svg xmlns="http://www.w3.org/2000/svg" width="52" height="52" fill="none" viewBox="0 0 52 52">
  <path fill="#0096FF" d="M26 4.333C14.04 4.333 4.333 14.04 4.333 26S14.04 47.666 26 47.666 47.667 37.96 47.667 26 37.96 4.333 26 4.333Zm7.583 23.292H22.338l3.727 3.726a1.635 1.635 0 0 1 0 2.297 1.607 1.607 0 0 1-1.148.477c-.412 0-.824-.152-1.149-.477l-6.5-6.5a1.635 1.635 0 0 1 0-2.297l6.5-6.5a1.635 1.635 0 0 1 2.297 0 1.635 1.635 0 0 1 0 2.297l-3.727 3.727h11.245c.889 0 1.625.736 1.625 1.625 0 .888-.736 1.625-1.625 1.625Z"/>
</svg>
