<svg xmlns="http://www.w3.org/2000/svg" width="32" height="32" fill="none" viewBox="0 0 32 32">
  <path fill="#0096FF" d="M21.586 3.107h-11.16C5.573 3.107 2.68 6 2.68 10.853v11.16c0 4.854 2.893 7.747 7.746 7.747h11.16c4.854 0 7.747-2.893 7.747-7.747V10.867c0-4.854-2.893-7.76-7.747-7.76Z" opacity=".4"/>
  <path fill="#1B1B1B" d="M21.867 10.947 16.854 8.24a1.812 1.812 0 0 0-1.693 0l-5.014 2.707c-.36.2-.586.586-.586 1.026 0 .44.226.827.586 1.027l5.014 2.707c.266.146.56.213.853.213.293 0 .587-.067.853-.213L21.881 13c.36-.2.586-.587.586-1.027a1.2 1.2 0 0 0-.6-1.026Zm-7.547 5.68-4.667-2.334a1.156 1.156 0 0 0-1.12.054 1.129 1.129 0 0 0-.547.973v4.413c0 .76.427 1.454 1.107 1.787l4.667 2.333c.16.08.333.12.52.12.213 0 .413-.053.6-.173a1.13 1.13 0 0 0 .546-.973v-4.414c0-.76-.413-1.44-1.106-1.786Zm9.134-2.28a1.156 1.156 0 0 0-1.12-.054l-4.667 2.334a2 2 0 0 0-1.107 1.786v4.414c0 .4.2.76.547.973.187.12.387.173.6.173.174 0 .347-.04.52-.12l4.667-2.333A2 2 0 0 0 24 19.733V15.32c0-.4-.2-.76-.547-.973Z"/>
</svg>
