<svg xmlns="http://www.w3.org/2000/svg" width="32" height="32" fill="none" viewBox="0 0 32 32">
  <path fill="#0096FF" d="M2.666 17.293V9.32c0-3.68 2.987-6.653 6.667-6.653h13.333c3.68 0 6.667 2.973 6.667 6.653v9.307c0 3.666-2.987 6.64-6.667 6.64h-2c-.413 0-.813.2-1.067.533l-2 2.653c-.88 1.174-2.32 1.174-3.2 0l-2-2.653c-.213-.293-.693-.533-1.066-.533h-2c-3.68 0-6.667-2.974-6.667-6.64v-1.334Z" opacity=".4"/>
  <path fill="#1B1B1B" d="M16 16c-.747 0-1.334-.6-1.334-1.333 0-.734.6-1.334 1.333-1.334.734 0 1.334.6 1.334 1.334 0 .733-.587 1.333-1.334 1.333Zm5.333 0C20.587 16 20 15.4 20 14.667c0-.734.6-1.334 1.333-1.334.734 0 1.334.6 1.334 1.334 0 .733-.587 1.333-1.334 1.333Zm-10.666 0c-.746 0-1.333-.6-1.333-1.333 0-.734.6-1.334 1.333-1.334.734 0 1.334.6 1.334 1.334A1.33 1.33 0 0 1 10.667 16Z"/>
</svg>
