<svg xmlns="http://www.w3.org/2000/svg" width="32" height="32" fill="none" viewBox="0 0 32 32">
  <path fill="#0096FF" d="M12 2.667A6.34 6.34 0 0 0 5.665 9c0 3.427 2.68 6.2 6.173 6.32a1.07 1.07 0 0 1 .294 0h.093A6.317 6.317 0 0 0 18.333 9a6.34 6.34 0 0 0-6.334-6.333Z" opacity=".4"/>
  <path fill="#1B1B1B" d="M18.773 18.867c-3.72-2.48-9.786-2.48-13.533 0C3.547 20 2.613 21.533 2.613 23.173c0 1.64.934 3.16 2.614 4.28 1.866 1.254 4.32 1.88 6.773 1.88 2.453 0 4.907-.626 6.773-1.88 1.68-1.133 2.614-2.653 2.614-4.306-.014-1.64-.934-3.16-2.614-4.28Z"/>
  <path fill="#0096FF" d="M26.652 9.787c.214 2.586-1.626 4.853-4.173 5.16h-.066c-.08 0-.16 0-.227.026-1.294.067-2.48-.346-3.373-1.106 1.373-1.227 2.16-3.067 2-5.067a6.187 6.187 0 0 0-1.027-2.907 4.79 4.79 0 0 1 6.867 3.893Z" opacity=".4"/>
  <path fill="#1B1B1B" d="M29.321 22.12c-.107 1.293-.933 2.413-2.32 3.174-1.333.733-3.013 1.08-4.68 1.04.96-.867 1.52-1.947 1.627-3.094.133-1.653-.654-3.24-2.227-4.506-.893-.707-1.933-1.267-3.067-1.68 2.947-.854 6.654-.28 8.934 1.56 1.226.986 1.853 2.226 1.733 3.506Z"/>
</svg>
