<svg xmlns="http://www.w3.org/2000/svg" width="32" height="32" fill="none" viewBox="0 0 32 32">
  <path fill="#0096FF" d="M28.492 15.187v7.986a6.67 6.67 0 0 1-6.666 6.667H10.172a6.67 6.67 0 0 1-6.666-6.667V15.28C4.519 16.373 5.959 17 7.519 17c1.68 0 3.293-.84 4.307-2.187C12.732 16.16 14.279 17 15.999 17c1.707 0 3.227-.8 4.147-2.133C21.172 16.187 22.759 17 24.413 17c1.613 0 3.08-.653 4.08-1.813Z" opacity=".4"/>
  <path fill="#1B1B1B" d="M19.986 1.667h-8l-.987 9.813c-.08.907.053 1.76.387 2.533.773 1.814 2.587 2.987 4.613 2.987 2.053 0 3.827-1.147 4.627-2.973.24-.574.386-1.24.4-1.92v-.254l-1.04-10.186Z"/>
  <path fill="#0096FF" d="m29.814 11.027-.387-3.694c-.56-4.026-2.387-5.666-6.293-5.666h-5.12l.986 10c.014.133.027.28.027.533a5.09 5.09 0 0 0 .613 1.907C20.6 15.867 22.467 17 24.414 17c1.773 0 3.373-.787 4.373-2.173.8-1.067 1.16-2.414 1.027-3.8ZM8.786 1.667c-3.92 0-5.733 1.64-6.306 5.706l-.36 3.667c-.134 1.427.253 2.813 1.093 3.893C4.226 16.253 5.786 17 7.52 17c1.946 0 3.813-1.133 4.76-2.867.346-.6.573-1.293.64-2.013l1.04-10.44H8.785v-.013Z" opacity=".6"/>
  <path fill="#1B1B1B" d="M15.133 22.213c-1.693.174-2.973 1.614-2.973 3.32v4.307h7.667V26c.013-2.787-1.627-4.107-4.694-3.787Z"/>
</svg>
